# xmcd
#
# Track frame offsets: 
#        150
#        8466
#        27698
#        45134
#        62045
#        77453
#        91930
#        106170
#        120344
#        135593
#        151009
#        168903
#        183465
#        194198
#        205682
#        222630
#        237190
#        254510
#        265811
#
# Disc length: 3731 seconds
#
# Revision: 2
# Processed by: cddbd v1.4PL0 Copyright (c) Steve Scherf et al.
# Submitted via: ExactAudioCopy v0.90b4
#
DISCID=f50e9113
DTITLE=Cavaleirros do Forró - Ao vivo
DYEAR=1900
DGENRE=
TTITLE0=Abertura
TTITLE1=Minha Historia
TTITLE2=Se Réi Pra Lá
TTITLE3=Voce Vai Ver
TTITLE4=Vá Dar Trabalho A Outro
TTITLE5=Menina de 12 anos
TTITLE6=Cada Volta É Um Recomeço
TTITLE7=Passageiro
TTITLE8=Brinquedo De Amor
TTITLE9=De Que Vale
TTITLE10=Volta
TTITLE11=Desejo 
TTITLE12=Caba Safado
TTITLE13=Antônio Bento
TTITLE14=Boi De Carro
TTITLE15=Liga Prá Mim
TTITLE16=Pout Pourri
TTITLE17=Anarriê
TTITLE18=Cavaleirros Do Forró
EXTD=
EXTT0=
EXTT1=
EXTT2=
EXTT3=
EXTT4=
EXTT5=
EXTT6=
EXTT7=
EXTT8=
EXTT9=
EXTT10=
EXTT11=
EXTT12=
EXTT13=
EXTT14=
EXTT15=
EXTT16=
EXTT17=
EXTT18=
PLAYORDER=
